<?xml version="1.0" standalone="no"?>
<!DOCTYPE svg PUBLIC "-//W3C//DTD SVG 20010904//EN"
 "http://www.w3.org/TR/2001/REC-SVG-20010904/DTD/svg10.dtd">
<svg version="1.0" xmlns="http://www.w3.org/2000/svg"
 width="410.000000pt" height="188.000000pt" viewBox="0 0 410.000000 188.000000"
 preserveAspectRatio="xMidYMid meet">
<metadata>
Created by potrace 1.15, written by Peter Selinger 2001-2017
</metadata>
<g transform="translate(0.000000,188.000000) scale(0.100000,-0.100000)"
fill="#000000" stroke="none">
<path d="M3475 1581 c-69 -17 -144 -50 -115 -50 8 0 66 10 128 23 63 13 110
20 105 16 -4 -4 -69 -20 -143 -36 -74 -15 -151 -33 -170 -40 l-35 -13 30 0
c17 0 84 10 150 23 66 13 122 22 124 20 2 -2 -46 -148 -106 -326 -95 -276
-109 -326 -101 -350 31 -89 -80 -217 -190 -218 -70 0 -129 59 -120 121 3 19 0
29 -8 29 -42 0 -375 -51 -396 -60 -18 -9 -31 -9 -44 -2 -12 7 -29 6 -57 -4
-46 -16 -140 -18 -168 -4 -14 8 -29 5 -60 -10 -55 -29 -172 -52 -217 -44 -20
3 -52 15 -70 25 l-33 19 -9 -26 c-6 -14 -10 -29 -10 -34 0 -10 -20 -14 -170
-34 -57 -8 -108 -12 -112 -10 -4 3 -97 -7 -205 -22 -195 -26 -199 -27 -235
-60 -104 -93 -227 -148 -378 -167 -152 -19 -264 23 -309 116 -46 95 -14 267
77 412 46 72 39 89 -9 23 -66 -91 -107 -196 -119 -308 l-9 -75 4 85 c2 47 10
105 19 129 19 51 16 62 -8 27 -44 -68 -59 -233 -29 -325 51 -160 236 -232 478
-186 148 27 315 107 315 150 0 11 4 25 8 30 4 6 97 21 207 33 379 43 527 62
548 73 11 7 61 13 111 14 59 2 112 10 152 24 42 14 83 20 130 19 89 -3 217 10
274 27 25 8 86 19 135 25 50 6 100 13 113 16 17 3 25 -2 33 -23 49 -130 258
-152 385 -40 58 51 83 102 91 183 l6 64 -33 -2 c-40 -4 -61 21 -40 47 10 12
24 15 45 12 l30 -5 109 322 c129 380 129 380 30 383 -32 1 -90 -6 -129 -16z"/>
<path d="M2396 1420 c-99 -27 -190 -53 -203 -59 -35 -16 -28 -31 10 -21 158
42 378 101 393 106 13 5 16 4 9 -4 -5 -5 -89 -31 -185 -57 -257 -69 -310 -85
-310 -96 0 -11 8 -10 221 47 91 24 169 44 174 44 5 0 -38 -48 -95 -107 -58
-60 -129 -134 -159 -165 l-54 -56 59 5 c41 4 70 1 95 -10 36 -15 40 -14 125
21 73 29 102 36 164 36 41 1 85 -3 97 -7 20 -7 22 -3 34 48 9 39 9 59 2 66 -8
8 -13 -1 -18 -30 -6 -35 -25 -68 -25 -43 0 12 -70 32 -113 32 -19 0 -63 -9
-97 -19 -33 -11 -60 -16 -58 -12 2 5 50 58 108 120 112 119 124 139 115 183
-6 26 -10 28 -58 27 -29 0 -133 -22 -231 -49z"/>
<path d="M3172 1373 c-6 -27 -16 -77 -23 -113 -17 -93 -29 -96 -14 -3 12 77
12 110 -1 59 -6 -25 -24 -37 -24 -16 0 21 -41 50 -70 50 -68 0 -214 -49 -197
-66 1 -2 44 8 95 20 51 13 92 21 92 17 0 -3 -46 -18 -102 -33 -57 -14 -116
-31 -132 -37 -58 -23 -15 -21 95 3 62 14 114 25 115 23 2 -1 -1 -28 -5 -60
l-8 -57 56 0 c34 0 65 -6 78 -15 27 -19 25 -23 53 139 23 136 23 136 11 136
-5 0 -14 -21 -19 -47z"/>
<path d="M1106 1229 c-53 -6 -98 -17 -133 -35 -30 -14 -53 -28 -51 -30 2 -2
26 3 53 11 27 9 81 17 119 20 l71 4 -64 -9 c-123 -18 -269 -78 -317 -131 -14
-15 5 -9 68 24 113 58 208 82 323 81 105 0 169 -24 211 -80 15 -19 33 -34 42
-34 20 0 193 52 189 57 -2 2 -39 -4 -83 -12 -90 -17 -104 -18 -86 -6 20 12
-83 115 -128 129 -53 16 -126 19 -214 11z"/>
<path d="M1015 926 c-61 -26 -119 -122 -145 -236 -6 -30 -10 -68 -8 -85 3 -28
5 -30 46 -28 24 1 55 11 72 23 51 36 120 211 120 304 0 33 -3 36 -27 36 -16
-1 -42 -7 -58 -14z"/>
</g>
</svg>
